<svg width="31" height="38" viewBox="0 0 31 38" fill="none" xmlns="http://www.w3.org/2000/svg">
<path d="M31 15.5C31 24.0604 15.5 37.0488 15.5 37.0488C15.5 37.0488 0 24.0604 0 15.5C0 6.93959 6.93959 0 15.5 0C24.0604 0 31 6.93959 31 15.5Z" fill="#6DC3D4"/>
<path d="M14.2374 15.2195L9.12522 13.0142C8.79804 12.8644 8.5971 12.6227 8.52239 12.2889C8.44769 11.9551 8.53957 11.6591 8.79804 11.401L9.12522 11.0743C9.23428 10.9654 9.36734 10.8837 9.52438 10.8293C9.68143 10.7748 9.84147 10.7612 10.0045 10.7884L17.3661 12.0953L19.9017 9.54283C20.2153 9.22973 20.6005 9.07318 21.0575 9.07318C21.5144 9.07318 21.8994 9.22973 22.2124 9.54283C22.5254 9.85594 22.6822 10.2406 22.6827 10.697C22.6833 11.1533 22.5265 11.5377 22.2124 11.8503L19.6768 14.4027L20.9651 21.7334C20.9923 21.8967 20.982 22.0601 20.934 22.2235C20.886 22.3868 20.8077 22.523 20.6992 22.6319L20.372 22.9382C20.113 23.1968 19.8131 23.2921 19.4723 23.224C19.1315 23.156 18.8861 22.9586 18.7361 22.6319L16.5481 17.5269L14.4623 19.5893L14.9122 22.1214C14.9395 22.2575 14.9327 22.3904 14.8918 22.52C14.8509 22.6496 14.7827 22.7617 14.6873 22.8565L14.3397 23.2036C14.1488 23.3942 13.9138 23.4691 13.6346 23.4282C13.3554 23.3874 13.1474 23.2444 13.0105 22.9994L11.5177 20.2428L8.75714 18.7521C8.51176 18.616 8.36862 18.4085 8.32772 18.1297C8.28682 17.8509 8.3618 17.616 8.55266 17.4248L8.90029 17.0777C8.99571 16.9824 9.10832 16.9143 9.2381 16.8735C9.36788 16.8327 9.50066 16.8259 9.63644 16.8531L12.1516 17.2819L14.2374 15.2195Z" fill="white"/>
</svg>
